<svg xmlns="http://www.w3.org/2000/svg" width="280" height="280"><script xmlns=""/><g transform="translate(1998 -6506)"><rect width="280" height="280" fill="#fff" rx="140" transform="translate(-1998 6506)"/><g opacity=".5" style="mix-blend-mode:luminosity;isolation:isolate" transform="translate(-6491 -1111)"><circle cx="140" cy="140" r="140" fill="#d9e2ee" opacity=".3" transform="translate(4493 7617)"/><circle cx="90" cy="90" r="90" fill="#d9e2ee" opacity=".5" transform="translate(4543 7667)"/><path fill="#fedf30" d="M4686 7685h-147a8 8 0 0 0-8 8v27a8 8 0 0 0 8 8h147a8 8 0 0 0 7-8v-27a8 8 0 0 0-7-8z"/><path fill="#fac600" d="M4695 7685h-12a8 8 0 0 1 8 8v27a8 8 0 0 1-8 8h12a8 8 0 0 0 8-8v-27a8 8 0 0 0-8-8z"/><path fill="#e8b800" d="M4638 7703h-88a3 3 0 1 1 0-6h88a3 3 0 0 1 0 6zm-64 13h-24a3 3 0 1 1 0-6h24a3 3 0 0 1 0 6z"/><path fill="#fff" d="M4717 7736h-147a8 8 0 0 0-7 8v27a8 8 0 0 0 7 8h147a8 8 0 0 0 8-8v-27a8 8 0 0 0-8-8z"/><path fill="#c5d3dd" d="M4727 7736h-12a8 8 0 0 1 7 8v27a8 8 0 0 1-7 8h12a8 8 0 0 0 7-8v-27a8 8 0 0 0-7-8zm-58 18h-88a3 3 0 1 1 0-6h88a3 3 0 0 1 0 6zm-64 13h-24a3 3 0 1 1 0-6h24a3 3 0 0 1 0 6z"/><path fill="#fff" d="M4686 7787h-147a8 8 0 0 0-8 8v27a8 8 0 0 0 8 7h147a8 8 0 0 0 7-7v-27a8 8 0 0 0-7-8z"/><path fill="#c5d3dd" d="M4695 7787h-12a8 8 0 0 1 8 8v27a8 8 0 0 1-8 7h12a8 8 0 0 0 8-7v-27a8 8 0 0 0-8-8zm-57 18h-88a3 3 0 1 1 0-6h88a3 3 0 0 1 0 6zm-64 13h-24a3 3 0 1 1 0-6h24a3 3 0 0 1 0 6z"/></g><path fill="#26bf64" d="M-1768 6579a23 23 0 1 1-23-23 23 23 0 0 1 23 23zm0 0"/><path fill="#49d685" d="M-1768 6579a23 23 0 0 1-21 23 23 23 0 0 1 0-46 23 23 0 0 1 21 23zm0 0"/><path fill="#fff" d="M-1780 6578h-10v-10a1 1 0 1 0-3 0v10h-9a1 1 0 0 0 0 3h9v9a1 1 0 1 0 3 0v-9h10a1 1 0 0 0 0-3zm0 0"/></g></svg>