<svg xmlns="http://www.w3.org/2000/svg" width="236" height="200"><defs><clipPath id="a"><path transform="translate(3520 -316)" fill="#fff" d="M0 0h236v200H0z"/></clipPath></defs><g transform="translate(-3520 316)" clip-path="url(#a)"><g transform="translate(788 -781)"><circle cx="70" cy="70" r="70" transform="translate(2780 497)" fill="#eae7f5" opacity=".5"/><circle cx="48" cy="48" r="48" transform="translate(2802 519)" fill="#d5d1e4" opacity=".5"/></g><g fill="#9f6cc9"><path d="M3573.5-151.9l.1-.2a2.2 2.2 0 01-.2-.2 2 2 0 01-.3-.8 2 2 0 01.8 0 2.3 2.3 0 01.3.1 2.3 2.3 0 01.2-.1 2 2 0 01.7-.4 2 2 0 010 .8 2.4 2.4 0 01-.1.3l.1.2a2 2 0 01.4.7 2 2 0 01-.8 0l-.3-.1-.2.2a2 2 0 01-.7.4 2 2 0 010-.9zm40.5 4a4.1 4.1 0 010-.5 4 4 0 01-.2-.3 3.3 3.3 0 01-.6-1.2 3.2 3.2 0 011.4 0 4 4 0 01.4.2 4.2 4.2 0 01.3-.3 3.4 3.4 0 011.3-.7 3.4 3.4 0 01-.1 1.4 4.1 4.1 0 01-.2.4 3.8 3.8 0 01.3.4 3.3 3.3 0 01.7 1.2 3.3 3.3 0 01-1.4 0 4 4 0 01-.4-.2 4.2 4.2 0 01-.4.3 3.3 3.3 0 01-1.2.7 3.3 3.3 0 010-1.5zm-47.4-32.8a6.7 6.7 0 01.3-.7 6.4 6.4 0 01-.5-.5 5.2 5.2 0 01-1-2 5.2 5.2 0 012.3 0 6.3 6.3 0 01.6.3 6.6 6.6 0 01.5-.5 5.4 5.4 0 012-1 5.4 5.4 0 01-.1 2.2 6.7 6.7 0 01-.2.7 6.4 6.4 0 01.4.5 5.3 5.3 0 011 2 5.3 5.3 0 01-2.2 0 6.4 6.4 0 01-.7-.3 6.8 6.8 0 01-.5.5 5.4 5.4 0 01-2 1 5.4 5.4 0 01.1-2.2zM3626-290.3a4.2 4.2 0 01.4 0l.1-.6a3.8 3.8 0 01.8-1.4 3.9 3.9 0 01.8 1.4 4.7 4.7 0 01.2.5 4.6 4.6 0 01.5 0 3.8 3.8 0 011.4.8 3.7 3.7 0 01-1.4.9 4.6 4.6 0 01-.4.1 4.6 4.6 0 01-.1.5 3.8 3.8 0 01-.8 1.4 4 4 0 01-.8-1.4l-.2-.4a4.6 4.6 0 01-.5-.1 3.8 3.8 0 01-1.4-.8 3.7 3.7 0 011.4-.9zm20.2 25.4a2.7 2.7 0 01.3 0v-.3a2.2 2.2 0 01.5-.9 2.3 2.3 0 01.5.8v.3a2.6 2.6 0 01.4 0 2.3 2.3 0 01.8.6 2.3 2.3 0 01-.8.5 3 3 0 01-.3 0v.3a2.3 2.3 0 01-.5.9 2.4 2.4 0 01-.5-.8v-.3a2.7 2.7 0 01-.4 0 2.3 2.3 0 01-.8-.6 2.2 2.2 0 01.8-.5zm27.5-22a4.2 4.2 0 01.5 0 4.4 4.4 0 01.1-.6 3.8 3.8 0 01.8-1.4 3.9 3.9 0 01.8 1.4 4.7 4.7 0 01.2.5 4.4 4.4 0 01.4 0 3.8 3.8 0 011.5.8 3.7 3.7 0 01-1.4.9 4.7 4.7 0 01-.5.1 4.4 4.4 0 010 .5 3.7 3.7 0 01-.8 1.4 3.9 3.9 0 01-.9-1.3 4.2 4.2 0 01-.1-.5 4.5 4.5 0 01-.5-.1 3.8 3.8 0 01-1.4-.8 3.7 3.7 0 011.3-.8z"/></g><g fill="#c9e7f4"><path d="M3603.6-266.6l7.2-7.4 9.4 3.8v1.3l-8.5-3.5-7.2 7.4a35.3 35.3 0 00-9-.1l-6.5-6.4a4.5 4.5 0 00-.8-.8l-9.2 3.8.1 9.8a35.2 35.2 0 00-7 7h-9.5l-3.5 8.7-1.1-1 3.7-9.3h9.5a34.5 34.5 0 017-7v-9.7l9.2-4 7.2 7.3a33.9 33.9 0 019 .1zM3666.4-263.3l5.7-1 3.2 5a21.1 21.1 0 015 1.2c.2.2.4 0 .6-.1l4.7-3 4.8 3.3-.1.7-4.5-3-5 3.2a22.7 22.7 0 00-5.2-1.3l-3.2-5-5.8 1c-.4 1.8-.7 3.7-1.2 5.5a22 22 0 00-5 3l-5.3-1.2-3.2 4.5-.5-.7 3.4-4.8 5.4 1.3a20.4 20.4 0 015-3l1.2-5.6z"/><path d="M3586.8-256a27.4 27.4 0 0113.3-2.9 27.7 27.7 0 0121.8 11.7l-.1 2.2a23.6 23.6 0 01-1.3 5.4l-1.1 2.8a13.8 13.8 0 00-.8-2.3l-.2.2a20.8 20.8 0 00-15.4-14 20.9 20.9 0 00-23.4 11.9 20.6 20.6 0 00-1.2 13.5 2.4 2.4 0 01-.9-.4 34.6 34.6 0 01-5-3.7 12 12 0 00-1-.8 27.6 27.6 0 0115.3-23.6zM3621-258.3l.2-.1a34 34 0 014.7 5l11.1-.2.7 1.6h-.2l-10.2.1c-.3 0-.6 0-.7-.2a33.7 33.7 0 00-5.5-5.6v-.6zM3662.3-250.3a16.3 16.3 0 0125.5 4.4.8.8 0 00.4.4 9.4 9.4 0 01.4 1 4.8 4.8 0 00-.8 1.7 12.3 12.3 0 01-1.8 3.3c-.5.5-.3 1.3-.4 2a10 10 0 00-.3-2.9 12.7 12.7 0 00-1.3-4.5 12.2 12.2 0 00-5.4-5.3 12.4 12.4 0 00-9.5-.6 12.2 12.2 0 00-8 9.3 16.5 16.5 0 00-.2 2.5 21 21 0 01-3.2-3.7 16 16 0 014.6-7.6zM3690.1-249.5c-.3-.5-1-1-.7-1.7a19.5 19.5 0 012 3.3c0 .1 0 .4.3.4l6.2 1.3c0 .3.2.7 0 1l-6-1.4-1.8-3zM3654.2-246.3a5.1 5.1 0 01.4.6c-.1.7-.5 1.4-.6 2a20 20 0 00-.7 6.8l.2 2a23 23 0 01-.4-6.6 20.2 20.2 0 011-4.8z"/><path d="M3684.7-240.2a6 6 0 01.3 2.5l-.3 2.5a14.6 14.6 0 01-2.6 4.6 11.7 11.7 0 01-15.7 1.4 9.4 9.4 0 01-1.5-1.2c-.3-.6-.8-1-1.1-1.5a10.6 10.6 0 01-1.5-3.3c.3.5.5 1.2.9 1.7a11.6 11.6 0 0020 0 11.8 11.8 0 001.5-6.7zM3617-240a4 4 0 01.6 1.2 19.4 19.4 0 011.6 7.3 18.6 18.6 0 000 2.2 23 23 0 01-1.8 6.6 19.8 19.8 0 01-23.7 10.6 26.3 26.3 0 01-4.6-2c-.5-.5-1-.8-1.6-1.2a20 20 0 01-5.4-6.2 5.2 5.2 0 01-.3-.7 19.8 19.8 0 0036.6-10 20.2 20.2 0 00-.9-6.1c-.1-.6-.4-1.1-.6-1.7zM3564.5-236.9c.3.3.7.6.9 1-.1 1.1-.3 2.2-.3 3.4a34.2 34.2 0 00.5 8 38.3 38.3 0 002.3 7.4 12.6 12.6 0 01-.8-1.7 34.3 34.3 0 01-2.6-18z"/></g><g fill="#85b0c2"><path d="M3579-268.5c3-1.2 6-2.6 9.2-3.8a4.5 4.5 0 01.8.8l6.4 6.4a35.3 35.3 0 019 .1l7.3-7.4 8.5 3.5v9.6l1 .8-.1.2v.6a33.7 33.7 0 015.5 5.6c.1.2.4.2.7.2h10.2a43.8 43.8 0 01-10.7 15.2 1.7 1.7 0 00-.7.8 27.2 27.2 0 00-2.3-8.2 10.2 10.2 0 00-.8-1.8 27.8 27.8 0 00-45.8-4.4 27.5 27.5 0 00-6.1 20.9 35.3 35.3 0 01-3.4-1.6l-2.6-1.5c0-1.2.2-2.3.3-3.4-.2-.4-.6-.7-1-1l.2-.7-5.5-5.4 3.5-8.7h9.4a35.2 35.2 0 017.1-7l-.1-9.8zM3666.6-262.3l5.8-1 3.2 5a22.7 22.7 0 015.1 1.3l5.1-3.2 4.5 3-1.3 5.6.4.4c-.3.7.4 1.2.7 1.7.7.9 1.1 2 1.7 3l6.1 1.3c-.7.9-1.3 1.8-2 2.5a25 25 0 01-5.2 4.2c-.5.3-1.1.5-1.4 1a16 16 0 00-.7-7 9.4 9.4 0 00-.4-1 16.4 16.4 0 00-25.8-6 16 16 0 00-5.4 10.6 2.7 2.7 0 00-.7-.7l-2.3-2c.1-.8.5-1.4.6-2.1a5.1 5.1 0 00-.4-.6l.1-.4-2.4-3.8c1-1.4 2-3 3.2-4.5l5.4 1.3a22 22 0 015-3l1.1-5.6z"/><path d="M3589.1-251.1a20.9 20.9 0 0125.7 5.4 20.7 20.7 0 013.6 6.8 21 21 0 01.8 9.6 18.6 18.6 0 010-2.2 19.4 19.4 0 00-1.6-7.3 4 4 0 00-.7-1.2 19.8 19.8 0 00-38 7.7 21 21 0 001 6l-1.2-.2-.3-1a20.6 20.6 0 011.2-13.5 21 21 0 019.5-10.1zM3669.1-250.8a12.4 12.4 0 019.5.6 12.2 12.2 0 015.4 5.3 12.7 12.7 0 011.3 4.5 13.2 13.2 0 01-.6 5.2l.3-2.5a6 6 0 00-.3-2.5v-.1a11.5 11.5 0 00-7.8-10 11.7 11.7 0 00-8.9.6 11.5 11.5 0 00-6.2 8 15.5 15.5 0 00-.2 3.5h-.5v.4a8.9 8.9 0 01-.2-1.2 16.5 16.5 0 01.2-2.5 12.2 12.2 0 018-9.3z"/></g><g fill="#eef8fc"><path d="M3589.7-258.9a27.8 27.8 0 0133.3 13 7.2 7.2 0 01-1-1.3 27.7 27.7 0 00-22-11.7 27.6 27.6 0 00-27 36.6 2.7 2.7 0 01.2.7 28.3 28.3 0 01-2.1-7.8 27.7 27.7 0 0118.6-29.5zM3662.4-251.5a16.4 16.4 0 0125.8 6 .8.8 0 01-.4-.4 16.2 16.2 0 00-30.7 8 9.4 9.4 0 010 1 16.8 16.8 0 01-.1-4 16 16 0 015.4-10.6zM3685.3-240.4a10 10 0 01.3 2.9 12.2 12.2 0 01-9.6 11 12.2 12.2 0 01-13.9-7.1 2 2 0 010-.7 13.1 13.1 0 002.8 4 9.4 9.4 0 001.5 1.1 11.7 11.7 0 0015.7-1.4 14.6 14.6 0 002.6-4.6 13.2 13.2 0 00.6-5.2zM3618.6-239a13.8 13.8 0 01.8 2.2 20.6 20.6 0 01-.4 12.3 20.8 20.8 0 01-37.4 4.1 1.6 1.6 0 01-.2-.5 21.3 21.3 0 007.7 6.8 26.3 26.3 0 004.6 2 19.8 19.8 0 0023.7-10.6 23 23 0 001.8-6.6 21 21 0 00-.8-9.6z"/></g><g fill="#4a7a87"><path d="M3586.6-248.3a19.8 19.8 0 0130.3 8.3c.3.6.5 1.1.6 1.7a3.4 3.4 0 01-.6 1.4 9.8 9.8 0 01-1.5 2.1 17 17 0 10-33.6 4.6l-3-2.1a19.8 19.8 0 017.8-16zM3668-249.7a11.7 11.7 0 019-.5 11.5 11.5 0 017.7 9.9c0 .2 0 .5-.2.6a9.4 9.4 0 01-1.5 1.4 9.9 9.9 0 00-1.3-6 10 10 0 00-13.3-3.7 9.8 9.8 0 00-5.2 7.8 9.8 9.8 0 01-1.4-1.5 11.5 11.5 0 016.2-8z"/></g><g fill="#6b9cab"><path d="M3637.5-252h.2l3.3 7.7-8.2 8.2a34.6 34.6 0 010 7.1l8.5 8.3-3.8 9.3h-11.8a36.6 36.6 0 01-4.8 4.9l.3 11.8-9.3 3.9-7.9-8a35.5 35.5 0 01-8.2.4l-7.4 7.6-9.3-3.8v-9.8a34 34 0 01-7.5-6.9l-9.3.1-4-9.3 6.4-6.4a34.4 34.4 0 002.4 8.1 12.6 12.6 0 00.8 1.7 38.3 38.3 0 01-2.3-7.5 34.2 34.2 0 01-.5-7.9c.9.4 1.7 1 2.6 1.5a35.3 35.3 0 003.4 1.6 28.3 28.3 0 002 7.8 18.3 18.3 0 001.4 2.7 27.8 27.8 0 0050.3-4.6 27.2 27.2 0 001.3-12.4 1.7 1.7 0 01.7-.8 43.8 43.8 0 0010.7-15.3zM3695.8-242.7c.8-.7 1.4-1.6 2.1-2.4h.1l.9 4.7-5.7 3.7a19.1 19.1 0 01-1 4l3.8 5.8-3.4 4.8-6.8-1.6a23.2 23.2 0 01-3.3 2.2l-1.5 6.8-5.8 1-3.5-5.6a20.6 20.6 0 01-4.7-.9l-5.2 3.4-4.8-3.4 1.2-5.6a21 21 0 01-3.3-4.9l-5.4-1.2-1-5.8 4.5-2.8v-1a23 23 0 00.5 6.7l-.2-2.1a20 20 0 01.7-6.8l2.3 2.1a2.7 2.7 0 01.7.7 16.8 16.8 0 000 4 16.4 16.4 0 0023.5 12 16 16 0 008.8-12.5c.3-.6.9-.8 1.4-1a25 25 0 005.1-4.3z"/><path d="M3578.7-226.5l1.2.3a22.8 22.8 0 002 4 5.2 5.2 0 00.2.7 20 20 0 005.4 6.2c.5.4 1.1.7 1.6 1.2a21.3 21.3 0 01-7.7-6.8l-1.3-2.1a20.2 20.2 0 01-1.4-3.5z"/></g><g fill="#afd8e6"><path d="M3621.8-245l.1-2.2a7.2 7.2 0 001 1.3 10.2 10.2 0 011 1.8 27.9 27.9 0 011 20.6 27.8 27.8 0 01-50.4 4.6 18.3 18.3 0 01-1.3-2.7 2.7 2.7 0 00-.1-.7 27.5 27.5 0 01-1.5-10l1 .7a34.6 34.6 0 005 3.8 2.4 2.4 0 00.8.3l.3 1a20.2 20.2 0 001.4 3.5l1.3 2a1.6 1.6 0 00.2.6 20.8 20.8 0 0037.4-4.1 20.6 20.6 0 00.4-12.3l1.1-2.8a23.6 23.6 0 001.3-5.4zM3687.8-242.8a4.8 4.8 0 01.8-1.7 16.2 16.2 0 01-8.1 19.7 16.4 16.4 0 01-23.5-12 9.4 9.4 0 00.1-1 16.2 16.2 0 01.6-5 21 21 0 003.2 3.8 8.9 8.9 0 00.1 1.2 14.3 14.3 0 001 3.5 2 2 0 00.1.7 12.3 12.3 0 0020.2 3.5 12.1 12.1 0 003.3-7.4c0-.7-.1-1.5.4-2a12.3 12.3 0 001.8-3.3z"/></g><g fill="#5e95a3"><path d="M3661.6-238.2a15.5 15.5 0 01.2-3.5 9.8 9.8 0 001.4 1.5 10 10 0 0010.4 10.8 9.9 9.9 0 006-2.3 9.8 9.8 0 003.4-6.6 9.4 9.4 0 001.5-1.4c.2-.1.1-.4.2-.6v.1a11.8 11.8 0 01-1.5 6.7 11.6 11.6 0 01-20 0l-1-1.7a10.6 10.6 0 001.5 3.2c.4.6.9 1 1.1 1.6a13.1 13.1 0 01-2.8-4 14.3 14.3 0 01-1-3.4l.1-.4h.5zM3617.5-238.3a20.2 20.2 0 01.9 6 19.8 19.8 0 01-36.6 10 22.8 22.8 0 01-2-4 21 21 0 01-1-6l3 2.1a17.1 17.1 0 001.8 5.5 17 17 0 0031.8-10 9.8 9.8 0 001.5-2.2 3.4 3.4 0 00.6-1.4z"/></g><g fill="#caa1eb"><path d="M3655-203.8l7.4-1.3 4 6.5a26.4 26.4 0 016.7 1.6l6.6-4.1 6.2 4.4-.2.9-5.7-4-6.6 4.1a27.5 27.5 0 00-5.5-1.4c-.5 0-1 0-1.3-.5l-3.9-6.1c-2 .2-4.1.7-6.2 1a4.7 4.7 0 00-1.2.3 9.5 9.5 0 00-.4 1.5l-.8 4a9.9 9.9 0 01-.4 1.5 5.4 5.4 0 01-1.2.6 25.4 25.4 0 00-4.8 3c-.1.2-.3.4-.6.3l-6.7-1.5a21 21 0 00-1.3 1.8l-2.8 4-.6-1c1.4-2 3-4 4.3-6.2l7 1.6a25.5 25.5 0 016.4-3.9l1.5-7.1zM3684.6-187.3c-.2-.2 0-.6 0-.8a25.4 25.4 0 012.7 4.5l3.1.7 5 1.2.3 1.3h-.2l-7.6-1.8c-.4 0-.5-.5-.7-.8a26.4 26.4 0 00-2.6-4.3zM3639.3-181.9v.1c.3.3.6.7.4 1a22.2 22.2 0 00-.7 2.3 25.5 25.5 0 00-.8 9.7l.2 1.7a26.5 26.5 0 01-.7-7.4 25 25 0 011.6-7.4z"/></g><path d="M3656.5-202.7c2.1-.3 4.1-.8 6.2-1l3.9 6c.2.6.8.5 1.3.6a27.5 27.5 0 015.5 1.5l6.6-4.2 5.7 4-1.6 7 .5.6c0 .3-.2.7 0 1a26.4 26.4 0 012.7 4.2c.1.3.2.8.6.8l7.6 1.7a32.8 32.8 0 01-11 9.7 20.6 20.6 0 01-7.4 13.9 21 21 0 01-34.2-12.7 7.7 7.7 0 010-.9 16.3 16.3 0 00.1-2.7 14.8 14.8 0 01.8-4.1 24.7 24.7 0 004.1 4.8 17.3 17.3 0 01.7-5.2 15.8 15.8 0 0130.4 1.6 30.9 30.9 0 01.7 3.5 11.1 11.1 0 001.6-2.2 16 16 0 001.5-3.4l.6-1.5a8.8 8.8 0 00-.8-2 20.7 20.7 0 00-7.7-8.8 21 21 0 00-27.7 4.7 20.5 20.5 0 00-4.4 10.6l-3.8-3.3a22.2 22.2 0 01.7-2.2c.2-.4-.1-.8-.3-1-.2-.3.2-.6 0-.8l-3-4.7 2.7-4a21 21 0 011.3-1.8l6.7 1.5.6-.2a25.4 25.4 0 014.8-3 5.4 5.4 0 001.2-.7 9.9 9.9 0 00.4-1.6l.8-3.9a9.5 9.5 0 01.4-1.5 4.7 4.7 0 011.2-.3m4.1 15.2a14.9 14.9 0 00-10.7 8.8 15 15 0 00-.8 8.8 17 17 0 001 3h-.2a11.8 11.8 0 001.5 3.3 16 16 0 003.6 3.8 15 15 0 0018 0 14.2 14.2 0 005.4-8 13.5 13.5 0 00.2-6.5v.3a19.2 19.2 0 00-.6-3.2 15 15 0 00-17.4-10.3z" fill="#b886e2"/><g fill="#c89bee"><path d="M3659.4-193.4a21 21 0 0115.4 2.9 20.7 20.7 0 017.8 8.7 8.8 8.8 0 01.8 2l-.6 1.6a16 16 0 01-1.5 3.4 11.1 11.1 0 01-1.6 2.2 31 31 0 00-.7-3.5 15.8 15.8 0 00-30.4-1.6 17.3 17.3 0 00-.7 5.2 24.7 24.7 0 01-4.1-4.8 14.8 14.8 0 00-.8 4 16.3 16.3 0 01-.1 2.8 22.3 22.3 0 010-4.7 20.5 20.5 0 014.2-10.6 21 21 0 0112.3-7.6z"/><path d="M3678.6-174.3a13.5 13.5 0 01-.2 6.5 14.2 14.2 0 01-5.4 8 15 15 0 01-18 0 16 16 0 01-3.6-3.8 11.8 11.8 0 01-1.5-3.4l.2.1a15 15 0 0024 4.6 14.6 14.6 0 004.4-11.7z"/></g><g fill="#9f6cc9"><path d="M3660.6-187.5a15 15 0 0117.4 10.3 19.2 19.2 0 01.5 3.2 14.6 14.6 0 01-4.5 11.8 15 15 0 01-24-4.7 17 17 0 01-1-3 15 15 0 01.9-8.8 14.9 14.9 0 0110.7-8.8m1.3 2a12.9 12.9 0 00-8.4 4.8 12.3 12.3 0 00-2.6 7.6 12.8 12.8 0 006.4 11.2 13 13 0 0012.6 0 12.7 12.7 0 003.4-19.3 12.9 12.9 0 00-11.4-4.3z"/><path d="M3695.5-180.5h.2l1 6.2-7.3 4.6a23.6 23.6 0 01-1.2 5.2l4.8 7.5-4.3 6.2-8.7-2a27.7 27.7 0 01-4.4 2.8l-1.8 8.7-7.5 1.3-4.5-7.2a26.3 26.3 0 01-6-1.1l-6.7 4.3-6.3-4.4 1.6-7.2a26.2 26.2 0 01-4-5.9l-.3-.4-6.8-1.5-1.4-7.5 5.8-3.6a26.5 26.5 0 00.7 7.4l-.2-1.7a25.5 25.5 0 01.8-9.7c1.3 1.1 2.4 2.3 3.8 3.3a22.3 22.3 0 000 4.7 7.7 7.7 0 00.1.9 21 21 0 0034.2 12.7 20.6 20.6 0 007.4-14 32.8 32.8 0 0011-9.6z"/></g></g></svg>