<svg xmlns="http://www.w3.org/2000/svg" width="236" height="200"><defs><clipPath id="a"><path fill="#fff" d="M3008-316h236v200h-236z"/></clipPath><clipPath id="b"><circle cx="70" cy="70" r="70" fill="#fff" transform="translate(-.3 -.3)"/></clipPath></defs><g clip-path="url(#a)" transform="translate(-3008 316)"><g clip-path="url(#b)" transform="translate(3056.3 -278.7)"><g transform="translate(-2780.3 -497.3)"><circle cx="70" cy="70" r="70" fill="#eae7f5" opacity=".5" transform="translate(2780 497)"/><circle cx="48" cy="48" r="48" fill="#d5d1e4" opacity=".5" transform="translate(2802 519)"/></g><path fill="#3f2a2f" d="M98.5 289.8H89l-4 27h9.5z"/><path fill="#3f2a2f" d="M76.6 316a10.6 10.6 0 0 0 10.8 12.2A14.2 14.2 0 0 0 101 316a10.6 10.6 0 0 0-10.7-12.3A14.3 14.3 0 0 0 76.6 316zm7.2-32a11.5 11.5 0 0 0 11.6 12.3 13 13 0 0 0 12.8-12.2 11.5 11.5 0 0 0-11.6-12.3 13 13 0 0 0-12.8 12.3z"/><path fill="#ffa73e" d="M150.2 215.1c4.2-74.4-11.5-84.3-48.9-84.3S44 140.8 39.8 215s11.5 84.4 48.8 84.4 57.4-10 61.6-84.4zm-21.2 99H34a7.6 7.6 0 0 0 0 15.2H129a7.6 7.6 0 0 0 0-15.2z"/><path fill="#8ac44b" d="M-31.3 224.9c1.3-49.5 30.6-95.9 55-110 57.5-18 6.8 109.3 6.8 109.3z"/><path fill="#8653b0" d="M-10.9 223.7c.9-32.5 31-62.6 46.9-72 14.8-8.7-6.4 71.5-6.4 71.5z"/><path fill="#8ac44b" d="M17.8 120c4.5-6.1 28.9-9.6 28.9-9.6s16-9.5 21.2-9c11.8 1.1 52.8 12.9 57.7 18.6s29.2 72 17.8 176L21.2 280.1s-11.3-149-3.4-160z"/><path fill="#fff" d="M68.5 122.5c-10.3 0-18.7-7.2-22.4-11.8 8.1-5.7 17-11.6 22.4-11 5.7.5 18.2 4.3 29.8 9-5.6 5.3-18 13.9-29.8 13.9z"/><path fill="#8653b0" d="M21.8 178.6c0 50.9 10.5 45.8 41.9 45.8s48.4-33.6 50.5-65.6c.6-9.6 18.4-18.1 16.7-26.7 8.4 24.2 21.4 82.6 12.5 164L21.2 280s-4-63.3-3.3-107.4c.3-19.3 4-3.3 4 6z"/><path fill="#4c343a" d="M21.4 264C8.3 267.3-10 281-9 300c0 0 7.2 20.2 21.5 20.2h108.2c10.2 0 29-7.8 32-20.2 3-13.2-9.8-31.6-18.7-33.7-56.3-13-86.9-8.7-112.7-2.3z"/><path fill="#60454b" d="M71.3 301.8c-31.7 0-58.8-16.6-71.3-24.7a45.4 45.4 0 0 1 21.4-13c25.8-6.5 56.4-10.8 112.7 2.2 3.5.8 7.7 4.3 11.2 9-10.9 9-40 26.5-74 26.5z"/><path fill="#60454b" d="M98.5 289.4a37 37 0 0 1 29-20.9 21.8 21.8 0 0 1 17.2 5.9 10.5 10.5 0 0 1-.4 15.5c-20.4 17.6-42.7 25.6-53.7 20.5a295 295 0 0 1 8-21zm-60.7-3.8a61.5 61.5 0 0 1 10 29.6c-8 1-17.4-.8-26.4-5.6C8 302.4-8 288.8-2 279.5c8.5-13 27.5-10.5 39.8 6.1z"/><path fill="#8ac44b" d="M172 242.4c6.5-56.2-24.2-112.7-47.4-123.3s-6.8 86.9-6.8 86.9z"/><path fill="#8653b0" d="M118.8 169.8c14.1 26.8 35.2 43.3 47.3 37.3a12 12 0 0 0 4.7-4.1 137.1 137.1 0 0 1 1.2 39.3L117 207s-6.2-32.3-7-58.2a117 117 0 0 0 8.8 21z"/><path fill="#f9deb7" d="M177.6 241.6c-2.1-27-23-48.8-42-47.5s-32.6 17-32.6 17l47.5 31.7 27-1.2z"/><path fill="#efd0ab" d="M110.2 204.6a61.8 61.8 0 0 0 30.5 6.8 73.5 73.5 0 0 0 23-3.4 58 58 0 0 1 14 33.5l-27.1 1.3-47.5-31.7a53.5 53.5 0 0 1 7-6.5z"/><path fill="#f9deb7" d="M-35.3 240.9c-8.8-27 3.6-50.4 23.8-48.7 20 1.6 38.3 18.6 38.3 18.6L-9 242l-26.3-1.3z"/><path fill="#efd0ab" d="M17.8 203.8c-5.4 4.3-15.6 7-28.2 7a84.8 84.8 0 0 1-24.4-3.7c-4 9-4.7 21-.5 33.7L-9 242l35.8-31.2a80.5 80.5 0 0 0-9-7z"/><path fill="#ff9d66" d="M123.9 197.7c17-1.2 36.2 11.3 45.9 43.7l-106.4 1.7-2.9-10.2s46.3-34.1 63.4-35.2z"/><path fill="#ffbb83" d="M60.5 232.9s46.3-34.1 63.4-35.2c9.6-.7 19.9 3 28.8 12.2-4.3 11.4-31 23.3-60.1 27.4a117.7 117.7 0 0 1-30.7.7l-1.4-5z"/><path fill="#ff9d66" d="M-3.3 197.7a33.4 33.4 0 0 0-19.1 4.6C-41.1 213-33.5 241.7-12 242l69.2 1.1 2.9-10.2s-46.3-34.1-63.4-35.2z"/><path fill="#ffbb83" d="M-22.4 202.2a33.8 33.8 0 0 1 19-4.6c7.8.5 21.4 7.7 34 15.5a7.3 7.3 0 0 1 .1 4c-2.2 8-19.4 10.2-38.3 4.7a67 67 0 0 1-23.1-11.2 21.5 21.5 0 0 1 8.2-8.4zM77.6 75l12.1 30.5c-11.2 15.3-31.2 17.2-37.5 1.6l-1.4-18.4z"/><path fill="#c28d43" d="m49 78.2.4-1.4z"/><path fill="#a7782f" d="m45 96.4 4-18.2-4 18.2zM77.2 120l-.5-1 .5 1zm-.6-1z"/><path fill="#ffbb83" d="M89.1 70.3c.4-4.4 3.3-9.1 6-7.5S93.9 77.5 91.5 79s-2.7-5.5-2.4-8.7z"/><path fill="#ff9d66" d="M91 71c.4-2.5 2-5.4 3-4.7s-1.6 8.5-2.7 9.5-.7-3-.4-4.8z"/><path fill="#ffbb83" d="M45.6 66c-.6-4.5-3.3-8.7-5.2-6.2s2 15.4 4 16.3 1.6-6.7 1.2-10z"/><path fill="#ff9d66" d="M44.2 67.7c-.5-3-1.7-5.8-2.2-4.3s2 9.8 2.6 10.5 0-4-.4-6.2z"/><path fill="#a5482b" d="M91.4 34c-1.7-7-9.6-7.2-9.6-7.2-22.3-15-32.7 2.3-33.7 8.8-.6 5.4-7.6 27.5-3 44.7l43.6-.6c4.1-5.2 5.5-15.2 4.6-28.1 0-2.9-1.5-15.6-2-17.6z"/><path fill="#a5482b" d="M87.2 51.7c-6.4 2-.4-9.8-18.1-10.7-12.9-.6-28.6 22.1-24 39.3l43.6-.6c3.4-4.2-2.8-14.2-1.5-28z"/><path fill="#ffbb83" d="M47.7 55.8c-1.4 20-3.6 25.4-1.4 29.5S65.6 104 71.2 104s16.6-10 18.6-17.4 1.2-30 .6-34.9c-1.2-16.1-12.3-19.9-19.9-21.4-8.7-1.1-21.7.2-22.8 25.5z"/><path fill="#a5482b" d="M43.1 71s1.7 17.3 3.8 20 10.4 17.7 22.1 17.3S89.7 97 91.7 89s1.4-28.4 1.4-28.4l-1.7.7s-3 13.2-7.5 15.5-12.5-3.5-15.7-3.4c-4.6.2-6.2 3.2-12.7 4.7-7 1.6-8.6-14.6-8.6-14.6L43.1 71z"/><path fill="#ed884e" d="M67 62.5c-1.2 4-5 12-3.4 12.7 1.5.8 4.5 3.9 5.7 3.5s3.9-3.9 4.4-4.4-3.9-12.7-3.9-12.7z"/><path fill="#ffbb83" d="M67.8 61.3c-1 3.3-4.2 12.4-3 13 1.2.6 3.6 3.1 4.6 2.8s3.2-3.1 3.5-3.5-3.7-13.3-3.7-13.3z"/><path fill="#a5482b" d="M61.7 32.5c7.2 1.6 20-.3 16-3.9s-7.7-5.2-7.3-3.4c1 4.1-8.7 7.3-8.7 7.3zM73.8 55.4a1.8 1.8 0 0 1 .8-1.4c1.2-.9 11 1.6 11 3.1l-.1 1c-.1 1.1-3-.1-6-.5-2.9-.3-5.7.3-5.7-.8v-1.4z"/><path fill="#604748" d="M61 62.9c0-1.7-1-3-2-3s-2.1 1.3-2.1 3 1 3 2 3c1.2 0 2-1.3 2-3zm14.6 0c0-1.7 1-3 2-3s2.1 1.3 2.1 3-1 3-2 3c-1.2 0-2.1-1.3-2.1-3z"/><path fill="#ff9d66" d="M61.5 65h-6.1v1.5l6.3-.8zm13.6 0h6.1v1.5l-6.3-.8z"/><path fill="#4a352c" d="M59.6 81.7s1.4 5.4 2.8 5.7a60.2 60.2 0 0 0 12 0c1.6-.1 3.3-6 3.3-6l-18.1.3z"/><path fill="#fdf5f3" d="m76.7 81.9-16.7.2 2.2 4.3c1.9.3 11.3.4 12.6 0l2-4.5z"/><path fill="#4a352c" d="M78.8 81c0-.4-.5-.4-1-.3s-.7.6-.6 1 .6.3 1 .1.8-.6.6-.9zm-18.5 1.2c.1-.3-.2-.6-.7-.7s-1 0-1 .3c-.1.3.2.7.7.8s1 0 1-.3z"/><path fill="#8d3013" d="M68.3 94.3c-1.2 0-2.1 0-2.1-.5s1-1 2.1-1 2.2.4 2.2 1-1 .5-2.2.5z"/><path fill="#a5482b" d="M61.3 54.7a1.8 1.8 0 0 0-.8-1.3c-1.3-.7-10.5 2.8-10.2 4.3l.2 1c.2 1 2.9-.5 5.7-1.2 2.7-.6 5.5-.4 5.4-1.4l-.2-1.4z"/><g transform="translate(-3031.3 -508.3)"><circle cx="70" cy="70" r="70" fill="#eae7f5" opacity=".5" transform="translate(2780 497)"/><circle cx="48" cy="48" r="48" fill="#d5d1e4" opacity=".5" transform="translate(2802 519)"/></g></g><path fill="#9f6cc9" d="M3095.1-275a15.6 15.6 0 1 1-15.5-15.5 15.6 15.6 0 0 1 15.5 15.6z"/><path fill="#8b5ab4" d="M3095.1-275a15.6 15.6 0 0 1-15.6 15.6 15.8 15.8 0 0 1-3.3-.4 15.6 15.6 0 0 0 2.7-30.7h.7a15.6 15.6 0 0 1 15.5 15.6z"/><path fill="#fd6868" d="M3101.4-287.8a9.1 9.1 0 1 1-9.1-9.2 9.1 9.1 0 0 1 9 9.2z"/><path fill="#fff" d="M3087.5-285.7a.2.2 0 0 1-.1-.1v-1.5h-1.4a.2.2 0 0 1-.2 0 .2.2 0 0 1 0-.1v-.4a.2.2 0 0 1 0-.2.2.2 0 0 1 .2 0h1.4v-1.4a.2.2 0 0 1 0-.1.2.2 0 0 1 .1 0h.5a.2.2 0 0 1 .1 0 .2.2 0 0 1 0 .1v1.4h1.5a.2.2 0 0 1 .1.2v.4a.2.2 0 0 1-.1.1h-1.4v1.5a.2.2 0 0 1 0 .1.2.2 0 0 1-.2 0zm3.8.3a.2.2 0 0 1-.1-.2l1.1-1.5a1.4 1.4 0 0 1-.3 0 1.8 1.8 0 0 1-.9-.3 1.8 1.8 0 0 1-.6-.6 1.6 1.6 0 0 1-.3-.8 1.8 1.8 0 0 1 .3-.9 1.7 1.7 0 0 1 .6-.7 2.2 2.2 0 0 1 1.1-.2 2.3 2.3 0 0 1 1.1.2 1.7 1.7 0 0 1 .7.7 1.7 1.7 0 0 1 .2.8 1.6 1.6 0 0 1 0 .6 2.4 2.4 0 0 1-.3.5l-.3.5-1.3 1.7a.6.6 0 0 1-.1.2.2.2 0 0 1-.2 0zm1-2.5a1 1 0 0 0 .6-.3.9.9 0 0 0 .3-.6.9.9 0 0 0-.3-.7 1 1 0 0 0-.7-.3 1 1 0 0 0-.6.3.9.9 0 0 0-.3.7.9.9 0 0 0 .3.6 1 1 0 0 0 .6.3zm3.6 2.5a.1.1 0 0 1-.1 0 .2.2 0 0 1 0-.2l1-1.5a1.4 1.4 0 0 1-.3 0 1.8 1.8 0 0 1-.9-.3 1.8 1.8 0 0 1-.6-.6 1.6 1.6 0 0 1-.2-.8 1.8 1.8 0 0 1 .2-.9 1.7 1.7 0 0 1 .7-.7 2.2 2.2 0 0 1 1-.2 2.3 2.3 0 0 1 1.1.2 1.7 1.7 0 0 1 .7.7 1.7 1.7 0 0 1 .3.8 1.6 1.6 0 0 1-.1.6 2.4 2.4 0 0 1-.3.5q0 .2-.3.5l-1.3 1.7a.6.6 0 0 1 0 .2.2.2 0 0 1-.2 0zm.9-2.5a1 1 0 0 0 .6-.3.9.9 0 0 0 .3-.6.9.9 0 0 0-.3-.7 1 1 0 0 0-.6-.3 1 1 0 0 0-.7.3.9.9 0 0 0-.3.7.9.9 0 0 0 .3.6 1 1 0 0 0 .7.3zM3073-272.5a1 1 0 0 1 0-2h8a1 1 0 0 1 0 2zm0-4a1 1 0 0 1 0-2h14a1 1 0 0 1 0 2z"/><path fill="#9f6cc9" d="M3215.8-200a16.4 16.4 0 1 1-16.4-16.5 16.4 16.4 0 0 1 16.4 16.4z"/><path fill="#8b5ab4" d="M3215.8-200a16.4 16.4 0 0 1-16.5 16.3 16.6 16.6 0 0 1-3.5-.4 16.4 16.4 0 0 0 2.9-32.4h.8a16.4 16.4 0 0 1 16.3 16.4z"/><path fill="#fd6868" d="M3222.4-213.1a9.6 9.6 0 1 1-9.6-9.7 9.6 9.6 0 0 1 9.6 9.7z"/><path fill="#fff" d="M3207.9-210.8a.2.2 0 0 1-.2-.1.2.2 0 0 1 0-.1v-1.5h-1.5a.2.2 0 0 1-.1 0 .2.2 0 0 1 0-.2v-.4a.2.2 0 0 1 0-.2h1.6v-1.5a.2.2 0 0 1 0-.1.2.2 0 0 1 .2 0h.4a.2.2 0 0 1 .1 0 .2.2 0 0 1 .1.1v1.5h1.5a.2.2 0 0 1 .1 0 .2.2 0 0 1 0 .2v.4a.2.2 0 0 1 0 .1.2.2 0 0 1-.1 0h-1.5v1.6a.2.2 0 0 1 0 .1.2.2 0 0 1-.2 0zm4 .2a.2.2 0 0 1-.2 0 .2.2 0 0 1 0-.2l1.2-1.6a1.4 1.4 0 0 1-.4 0 2 2 0 0 1-.9-.2 1.9 1.9 0 0 1-.6-.7 1.7 1.7 0 0 1-.3-.9 1.8 1.8 0 0 1 .2-1 1.8 1.8 0 0 1 .8-.6 2.3 2.3 0 0 1 1-.3 2.4 2.4 0 0 1 1.2.3 1.7 1.7 0 0 1 .8.7 1.8 1.8 0 0 1 .2.9 1.7 1.7 0 0 1-.1.6 2.5 2.5 0 0 1-.2.5l-.4.5-1.3 1.9a.6.6 0 0 1-.2 0 .2.2 0 0 1-.1.1zm.9-2.6a1 1 0 0 0 .7-.3 1 1 0 0 0 .3-.7 1 1 0 0 0-.3-.7 1 1 0 0 0-.7-.3 1 1 0 0 0-.7.3 1 1 0 0 0-.3.7 1 1 0 0 0 .3.7 1 1 0 0 0 .7.3zm3.8 2.6a.2.2 0 0 1-.1-.2l1.1-1.6a1.4 1.4 0 0 1-.3 0 2 2 0 0 1-1-.2 1.9 1.9 0 0 1-.6-.7 1.7 1.7 0 0 1-.2-.9 1.8 1.8 0 0 1 .2-1 1.8 1.8 0 0 1 .7-.6 2.3 2.3 0 0 1 1.2-.3 2.4 2.4 0 0 1 1.1.3 1.7 1.7 0 0 1 .7.7 1.8 1.8 0 0 1 .3.9 1.7 1.7 0 0 1-.1.6 2.5 2.5 0 0 1-.3.5q0 .2-.3.5l-1.4 1.9a.2.2 0 0 1-.2.1zm1-2.6a1 1 0 0 0 .7-.3 1 1 0 0 0 .3-.7 1 1 0 0 0-.3-.7 1 1 0 0 0-.7-.3 1 1 0 0 0-.7.3 1 1 0 0 0-.3.7 1 1 0 0 0 .2.7 1 1 0 0 0 .8.3zM3193-196.5a1 1 0 0 1 0-2h8a1 1 0 0 1 0 2zm0-4a1 1 0 0 1 0-2h14a1 1 0 0 1 0 2z"/><path fill="#9f6cc9" d="M3194.3-269.3a19.1 19.1 0 1 1-19.1-19.2 19.1 19.1 0 0 1 19 19.2z"/><path fill="#8b5ab4" d="M3194.3-269.3a19.1 19.1 0 0 1-19.2 19 19.4 19.4 0 0 1-4.1-.4 19.1 19.1 0 0 0 3.3-37.8h.9a19.1 19.1 0 0 1 19 19.2z"/><path fill="#fd6868" d="M3201.7-285a11.2 11.2 0 1 1-11.2-11.2 11.2 11.2 0 0 1 11.2 11.3z"/><path fill="#fff" d="M3184.7-282.2a.2.2 0 0 1-.2-.1.2.2 0 0 1 0-.2v-1.7h-1.8a.2.2 0 0 1-.1 0 .2.2 0 0 1 0-.2v-.5a.2.2 0 0 1 0-.2.2.2 0 0 1 .1 0h1.8v-1.7a.2.2 0 0 1 0-.2.2.2 0 0 1 .2 0h.5a.2.2 0 0 1 .2 0 .2.2 0 0 1 0 .2v1.7h1.7a.2.2 0 0 1 .2 0 .2.2 0 0 1 0 .2v.5a.2.2 0 0 1 0 .1.2.2 0 0 1-.2 0h-1.7v1.8a.2.2 0 0 1 0 .2.2.2 0 0 1-.2 0zm4.6.3a.2.2 0 0 1 0-.1.2.2 0 0 1-.1-.1.2.2 0 0 1 0-.2l1.3-1.8a1.7 1.7 0 0 1-.4 0 2.3 2.3 0 0 1-1-.2 2.2 2.2 0 0 1-.8-.8 2 2 0 0 1-.3-1 2.2 2.2 0 0 1 .3-1.1 2.1 2.1 0 0 1 .8-.8 2.6 2.6 0 0 1 1.3-.3 2.9 2.9 0 0 1 1.4.3 2 2 0 0 1 .8.7 2.1 2.1 0 0 1 .3 1.1 2 2 0 0 1-.1.7 3 3 0 0 1-.3.6l-.4.6-1.6 2.2a.7.7 0 0 1-.1.1.3.3 0 0 1-.2 0zm1.1-3.1a1.2 1.2 0 0 0 .9-.3 1 1 0 0 0 .3-.9 1 1 0 0 0-.3-.8 1.2 1.2 0 0 0-.9-.3 1.2 1.2 0 0 0-.8.3 1 1 0 0 0-.3.8 1 1 0 0 0 .3.9 1.2 1.2 0 0 0 .8.3zm4.5 3a.2.2 0 0 1-.1 0 .2.2 0 0 1 0-.1.2.2 0 0 1 0-.2l1.3-1.8a1.7 1.7 0 0 1-.4 0 2.3 2.3 0 0 1-1-.2 2.2 2.2 0 0 1-.9-.8 2 2 0 0 1-.2-1 2.2 2.2 0 0 1 .2-1.1 2.1 2.1 0 0 1 .9-.8 2.6 2.6 0 0 1 1.3-.3 2.9 2.9 0 0 1 1.3.3 2 2 0 0 1 .9.7 2.1 2.1 0 0 1 .2 1.1 2 2 0 0 1 0 .7 3 3 0 0 1-.3.6l-.5.6-1.5 2.2a.7.7 0 0 1-.2.1.3.3 0 0 1-.1 0zm1-3a1.2 1.2 0 0 0 1-.3 1 1 0 0 0 .3-.9 1 1 0 0 0-.4-.8 1.2 1.2 0 0 0-.8-.3 1.2 1.2 0 0 0-.8.3 1 1 0 0 0-.4.8 1 1 0 0 0 .4.9 1.2 1.2 0 0 0 .8.3z"/><g fill="#fff" transform="translate(47 -1507.5)"><rect width="16" height="2" rx="1" transform="translate(3120 1237)"/><rect width="16" height="2" rx="1" transform="translate(3120 1233)"/><rect width="10" height="2" rx="1" transform="translate(3120 1241)"/></g><path fill="#9f6cc9" d="M3067.3-209.3a19.1 19.1 0 1 1-19.1-19.2 19.1 19.1 0 0 1 19 19.2z"/><path fill="#8b5ab4" d="M3067.3-209.3a19.1 19.1 0 0 1-19.2 19 19.4 19.4 0 0 1-4.1-.4 19.1 19.1 0 0 0 3.3-37.8h.9a19.1 19.1 0 0 1 19 19.2z"/><path fill="#fd6868" d="M3074.7-224.8a11.2 11.2 0 1 1-11.2-11.3 11.2 11.2 0 0 1 11.2 11.3z"/><path fill="#fff" d="M3057.7-222.1a.2.2 0 0 1-.1-.1.2.2 0 0 1 0-.2v-1.7h-1.8a.2.2 0 0 1-.2 0 .2.2 0 0 1 0-.2v-.5a.2.2 0 0 1 0-.2.2.2 0 0 1 .2 0h1.7v-1.7a.2.2 0 0 1 0-.2.2.2 0 0 1 .2 0h.6a.2.2 0 0 1 .1 0 .2.2 0 0 1 0 .2v1.7h1.8a.2.2 0 0 1 .2 0 .2.2 0 0 1 0 .2v.5a.2.2 0 0 1 0 .1.2.2 0 0 1-.2 0h-1.7v1.8a.2.2 0 0 1 0 .2.2.2 0 0 1-.2 0zm4.7.3a.2.2 0 0 1-.1-.1.2.2 0 0 1 0-.1.2.2 0 0 1 0-.2l1.3-1.8a1.7 1.7 0 0 1-.4 0 2.3 2.3 0 0 1-1-.2 2.2 2.2 0 0 1-.9-.8 2 2 0 0 1-.2-1 2.2 2.2 0 0 1 .2-1.1 2.1 2.1 0 0 1 .9-.8 2.6 2.6 0 0 1 1.3-.3 2.9 2.9 0 0 1 1.3.3 2 2 0 0 1 .9.7 2.1 2.1 0 0 1 .2 1.1 2 2 0 0 1 0 .7 3 3 0 0 1-.3.6l-.5.6-1.5 2.2a.7.7 0 0 1-.2.1.3.3 0 0 1-.1 0zm1-3.1a1.2 1.2 0 0 0 1-.3 1 1 0 0 0 .3-.9 1 1 0 0 0-.4-.8 1.2 1.2 0 0 0-.8-.3 1.2 1.2 0 0 0-.8.3 1 1 0 0 0-.4.8 1 1 0 0 0 .4.9 1.2 1.2 0 0 0 .8.3zm4.6 3a.2.2 0 0 1-.2 0 .2.2 0 0 1 0-.1.2.2 0 0 1 0-.2l1.3-1.8a1.7 1.7 0 0 1-.3 0 2.3 2.3 0 0 1-1.1-.2 2.2 2.2 0 0 1-.8-.8 2 2 0 0 1-.3-1 2.2 2.2 0 0 1 .3-1.1 2.1 2.1 0 0 1 .8-.8 2.6 2.6 0 0 1 1.3-.3 2.9 2.9 0 0 1 1.4.3 2 2 0 0 1 .8.7 2.1 2.1 0 0 1 .3 1.1 2 2 0 0 1-.1.7 3 3 0 0 1-.3.6l-.4.6-1.6 2.2a.7.7 0 0 1-.1.1.3.3 0 0 1-.2 0zm1-3a1.2 1.2 0 0 0 .9-.3 1 1 0 0 0 .3-.9 1 1 0 0 0-.3-.8 1.2 1.2 0 0 0-.8-.3 1.2 1.2 0 0 0-.9.3 1 1 0 0 0-.3.8 1 1 0 0 0 .3.9 1.2 1.2 0 0 0 .9.3z"/><g fill="#fff" transform="translate(-80 -1447.5)"><rect width="16" height="2" rx="1" transform="translate(3120 1237)"/><rect width="16" height="2" rx="1" transform="translate(3120 1233)"/><rect width="10" height="2" rx="1" transform="translate(3120 1241)"/></g></g></svg>