<svg xmlns="http://www.w3.org/2000/svg" width="236" height="200"><defs><clipPath id="a"><path fill="#fff" d="M2749-316h236v200h-236z"/></clipPath></defs><g clip-path="url(#a)" transform="translate(-2749 316)"><g transform="translate(16.75 -783)"><circle cx="70" cy="70" r="70" fill="#eae7f5" opacity=".5" transform="translate(2780 497)"/><circle cx="48" cy="48" r="48" fill="#d5d1e4" opacity=".5" transform="translate(2802 519)"/></g><path fill="#ffad00" d="m2864.27-171.6-2.02 1.35a9.5 9.5 0 1 0 10.53 15.8l2.02-1.35-10.53-15.8z"/><path fill="#fecc00" d="M2874.67-155.71a9.5 9.5 0 1 1 2.64-13.17 9.5 9.5 0 0 1-2.64 13.17z"/><path fill="#ffad00" d="M2873.66-157.23a7.68 7.68 0 1 1 2.14-10.64 7.68 7.68 0 0 1-2.14 10.64z"/><path fill="#f39a00" d="M2873.66-157.23a6.97 6.97 0 0 1-.53.33 7.67 7.67 0 0 0-8.49-12.74l.51-.37a7.68 7.68 0 1 1 8.51 12.78z"/><path fill="#fecc00" d="M2873.3-162.15a3.17 3.17 0 0 1-.99 1.87l.75 1.12-1.25.84-.72-1.07a6.4 6.4 0 0 1-1.44.62 4.4 4.4 0 0 1-1.33.2l-.49-2.2a4.87 4.87 0 0 0 1.32-.2 4.17 4.17 0 0 0 1.18-.53 1.76 1.76 0 0 0 .56-.51.37.37 0 0 0 0-.42.43.43 0 0 0-.47-.17 5.74 5.74 0 0 0-.97.3 10 10 0 0 1-1.45.43 2.48 2.48 0 0 1-1.28-.09 2.3 2.3 0 0 1-1.17-.99 2.68 2.68 0 0 1-.46-1.9 3.2 3.2 0 0 1 1.1-1.9l-.74-1.12 1.26-.84.72 1.09a4.92 4.92 0 0 1 2.2-.62l.53 2.16a4.23 4.23 0 0 0-2.1.63q-.81.55-.51 1a.41.41 0 0 0 .45.15 5.57 5.57 0 0 0 .95-.3 8.9 8.9 0 0 1 1.44-.45 2.53 2.53 0 0 1 1.28.08 2.26 2.26 0 0 1 1.18.98 2.67 2.67 0 0 1 .45 1.84z"/><path fill="#ffad00" d="m2843-151.8-.72 1a4.79 4.79 0 0 0 7.75 5.63l.72-1z"/><path fill="#fecc00" d="M2850.7-146.1a4.79 4.79 0 1 1-1.06-6.7 4.79 4.79 0 0 1 1.07 6.7z"/><path fill="#ffad00" d="M2849.96-146.64a3.87 3.87 0 1 1-.86-5.41 3.87 3.87 0 0 1 .86 5.4z"/><path fill="#f39a00" d="m2849.96-146.64-.2.24a3.87 3.87 0 0 0-1.03-5.14 3.87 3.87 0 0 0-5.2.61c.04-.09.1-.18.17-.27a3.87 3.87 0 1 1 6.26 4.56z"/><path fill="#fecc00" d="M2848.93-148.9a1.6 1.6 0 0 1-.14 1.05l.55.4-.45.62-.53-.39a3.21 3.21 0 0 1-.57.55 2.21 2.21 0 0 1-.6.33l-.6-.96a2.47 2.47 0 0 0 .58-.32 2.11 2.11 0 0 0 .47-.45.9.9 0 0 0 .17-.34.19.19 0 0 0-.08-.2.22.22 0 0 0-.25 0 2.93 2.93 0 0 0-.4.3 5.05 5.05 0 0 1-.61.47 1.25 1.25 0 0 1-.62.18 1.16 1.16 0 0 1-.73-.26 1.35 1.35 0 0 1-.55-.83 1.62 1.62 0 0 1 .18-1.1l-.54-.38.45-.62.53.39a2.48 2.48 0 0 1 .94-.68l.62.93a2.13 2.13 0 0 0-.88.66q-.29.4-.07.56a.2.2 0 0 0 .24 0 2.82 2.82 0 0 0 .4-.31 4.52 4.52 0 0 1 .6-.47 1.28 1.28 0 0 1 .62-.19 1.14 1.14 0 0 1 .73.26 1.35 1.35 0 0 1 .54.8z"/><path fill="#8ac44b" d="M2889.6-254.5a15.46 15.46 0 1 1 10.34-29.13 15.46 15.46 0 1 1-10.34 29.14zm-6.86-18.83a12.76 12.76 0 0 0 20.18 14.08 12.76 12.76 0 0 1-20.76-7.84 20.21 20.21 0 0 1 21.15 7.5 12.76 12.76 0 1 0-20.57-13.74zm11.59 5.51a5.68 5.68 0 1 1 1.9.33 5.68 5.68 0 0 1-1.9-.33z"/><path fill="#fd9d68" d="M2830.43-254.9a13.04 13.04 0 1 1 14.73-21.52 13.04 13.04 0 1 1-14.73 21.52zm7.36 0a10.79 10.79 0 0 1-7.1-2.67 10.76 10.76 0 0 0 7.1 2.67zm-3.75-20.86a10.76 10.76 0 0 0-3.34 18.2 17.05 17.05 0 0 1 17.74-6.59 10.74 10.74 0 0 0-.56-5.26 10.75 10.75 0 0 0-13.84-6.35zm12.33 16.6a10.74 10.74 0 0 0 1.95-4.28 10.8 10.8 0 0 1-1.95 4.28zm1.95-4.3.02-.07zm.03-.11v-.04zm-16.34-3.88a4.8 4.8 0 1 1 4.5 3.13 4.8 4.8 0 0 1-4.5-3.13z"/><path fill="#56ccf2" d="M2852.43-274.87a14.89 14.89 0 1 1 11.76 3.5 15.11 15.11 0 0 1-2.03.13 14.87 14.87 0 0 1-9.73-3.63zm9.74 1.04c.31 0 .62-.02.94-.04q-.47.04-.94.04a12.24 12.24 0 0 1-1.38-.08 12.13 12.13 0 0 0 1.38.08zm8.27-3.2.04-.03zm.06-.04a12.26 12.26 0 0 0 3-4.25 12.32 12.32 0 0 1-3 4.25zm-9.97-21.22a12.28 12.28 0 0 0-8.26 19.42 19.46 19.46 0 0 1 21.4-2.9 12.28 12.28 0 0 0-13.14-16.52zm12.98 16.93.01-.03zm.04-.1.01-.02zm.04-.1v-.02zm.04-.1zm-17.43-7.89a5.47 5.47 0 1 1 6.16 4.7 5.64 5.64 0 0 1-.75.04 5.47 5.47 0 0 1-5.41-4.74z"/><path fill="#8b5ab4" d="M2913.08-249.51h-92.14a2.2 2.2 0 0 1-2.2-2.2v-7.3a2.2 2.2 0 0 1 2.2-2.19h92.14a2.2 2.2 0 0 1 2.2 2.2v7.3a2.2 2.2 0 0 1-2.2 2.19z"/><path fill="#eee2ca" d="M2878.06-166.69h-21.4a3.04 3.04 0 0 1-3.04-2.82l-1.43-19.22h30.33l-1.42 19.22a3.04 3.04 0 0 1-3.04 2.82z"/><path fill="#7c50a1" d="M2878.06-166.69h-21.4a3.04 3.04 0 0 1-3.04-2.82l-1.43-19.22h30.33l-1.42 19.22a3.04 3.04 0 0 1-3.04 2.82z"/><path fill="#ffad00" d="m2888.4-147.45-1.78-.79a7.6 7.6 0 1 0-6.19 13.9l1.78.8z"/><path fill="#fecc00" d="M2882.1-133.6a7.6 7.6 0 1 1 10.05-3.85 7.6 7.6 0 0 1-10.05 3.85z"/><path fill="#ffad00" d="M2882.7-134.93a6.15 6.15 0 1 1 8.11-3.11 6.15 6.15 0 0 1-8.12 3.11z"/><path fill="#f39a00" d="M2882.7-134.93c-.16-.07-.31-.14-.46-.23a6.15 6.15 0 0 0 7.66-3.3 6.15 6.15 0 0 0-2.67-7.9l.47.19a6.15 6.15 0 1 1-5 11.24z"/><path fill="#fecc00" d="M2885.87-137.28a2.54 2.54 0 0 1-1.69.13l-.44 1-1.1-.5.41-.95a5.11 5.11 0 0 1-1.04-.7 3.52 3.52 0 0 1-.7-.83l1.28-1.27a3.92 3.92 0 0 0 .7.81 3.36 3.36 0 0 0 .87.58 1.42 1.42 0 0 0 .58.16.3.3 0 0 0 .28-.19.35.35 0 0 0-.08-.39 4.66 4.66 0 0 0-.62-.53 8.06 8.06 0 0 1-.92-.8 1.99 1.99 0 0 1-.48-.9 1.85 1.85 0 0 1 .17-1.22 2.15 2.15 0 0 1 1.1-1.12 2.57 2.57 0 0 1 1.75-.08l.43-.98 1.12.5-.43.96a3.94 3.94 0 0 1 1.37 1.23l-1.25 1.27a3.4 3.4 0 0 0-1.33-1.15q-.71-.32-.89.08a.33.33 0 0 0 .1.37 4.48 4.48 0 0 0 .6.52 7.14 7.14 0 0 1 .93.78 2.03 2.03 0 0 1 .5.9 1.81 1.81 0 0 1-.17 1.22 2.14 2.14 0 0 1-1.06 1.1z"/><path fill="#9f6cc9" d="M2910.74-249.5h-86.76l28.21 60.77h30.33z"/><path fill="#8b5ab4" d="M2849.3-249.5h-16.41l24.86 60.77h5.31z"/><path fill="#9f6cc9" d="m2774.86-188.31.16-.21a2.17 2.17 0 0 1-.1-.24 1.95 1.95 0 0 1-.14-.84 1.95 1.95 0 0 1 .8.3 2.3 2.3 0 0 1 .2.16 2.33 2.33 0 0 1 .24-.11 2.03 2.03 0 0 1 .85-.15 2.03 2.03 0 0 1-.32.8 2.44 2.44 0 0 1-.16.21c.04.08.08.15.11.24a2 2 0 0 1 .13.84 2.01 2.01 0 0 1-.8-.3l-.2-.16a2.97 2.97 0 0 1-.24.11 2.02 2.02 0 0 1-.85.15 2.02 2.02 0 0 1 .32-.8zm37.23 16.23a4.13 4.13 0 0 1 .25-.34 4.08 4.08 0 0 1-.17-.4 3.26 3.26 0 0 1-.22-1.39 3.25 3.25 0 0 1 1.33.5 4.04 4.04 0 0 1 .34.26 4.16 4.16 0 0 1 .4-.19 3.38 3.38 0 0 1 1.4-.24 3.37 3.37 0 0 1-.52 1.33 4.13 4.13 0 0 1-.26.35 3.84 3.84 0 0 1 .17.4 3.29 3.29 0 0 1 .22 1.39 3.31 3.31 0 0 1-1.32-.5 4.08 4.08 0 0 1-.35-.26 4.17 4.17 0 0 1-.4.19 3.34 3.34 0 0 1-1.4.23 3.33 3.33 0 0 1 .53-1.33zm-34.86-45.8a6.68 6.68 0 0 1 .41-.56 6.4 6.4 0 0 1-.28-.62 5.2 5.2 0 0 1-.34-2.24 5.23 5.23 0 0 1 2.12.8 6.28 6.28 0 0 1 .55.41 6.61 6.61 0 0 1 .63-.3 5.41 5.41 0 0 1 2.25-.38 5.41 5.41 0 0 1-.84 2.13 6.68 6.68 0 0 1-.42.55 6.38 6.38 0 0 1 .28.63 5.3 5.3 0 0 1 .35 2.23 5.25 5.25 0 0 1-2.12-.8 6.36 6.36 0 0 1-.55-.4 6.76 6.76 0 0 1-.63.3 5.38 5.38 0 0 1-2.25.37 5.38 5.38 0 0 1 .84-2.12zm140.7 45.58a4.18 4.18 0 0 1-.06-.49 5.1 5.1 0 0 1-.46-.17 3.78 3.78 0 0 1-1.3-.96 3.85 3.85 0 0 1 1.5-.63 4.68 4.68 0 0 1 .49-.07 4.65 4.65 0 0 1 .18-.46 3.8 3.8 0 0 1 .98-1.3 3.7 3.7 0 0 1 .63 1.48 4.56 4.56 0 0 1 .06.49 4.58 4.58 0 0 1 .46.17 3.76 3.76 0 0 1 1.3.96 3.91 3.91 0 0 1-1.5.64 5.64 5.64 0 0 1-.49.06 4.56 4.56 0 0 1-.18.46 3.8 3.8 0 0 1-.99 1.3 3.66 3.66 0 0 1-.62-1.48zm28.24-16.01a2.73 2.73 0 0 1-.04-.3 3.58 3.58 0 0 1-.27-.1 2.25 2.25 0 0 1-.79-.58 2.33 2.33 0 0 1 .9-.38l.3-.04a2.65 2.65 0 0 1 .12-.27 2.32 2.32 0 0 1 .59-.79 2.26 2.26 0 0 1 .38.9 2.94 2.94 0 0 1 .03.29l.28.1a2.26 2.26 0 0 1 .78.57 2.35 2.35 0 0 1-.9.39l-.3.04a2.7 2.7 0 0 1-.1.28 2.3 2.3 0 0 1-.6.78 2.23 2.23 0 0 1-.38-.9zm-17.4-30.66a4.17 4.17 0 0 1-.06-.48 4.43 4.43 0 0 1-.46-.18 3.8 3.8 0 0 1-1.3-.95 3.88 3.88 0 0 1 1.5-.64 4.7 4.7 0 0 1 .5-.06 4.43 4.43 0 0 1 .17-.46 3.83 3.83 0 0 1 .98-1.3 3.75 3.75 0 0 1 .63 1.48 4.7 4.7 0 0 1 .06.48 4.37 4.37 0 0 1 .46.18 3.7 3.7 0 0 1 1.3.96 3.88 3.88 0 0 1-1.5.63 4.18 4.18 0 0 1-.49.07 4.54 4.54 0 0 1-.18.46 3.79 3.79 0 0 1-.98 1.3 3.68 3.68 0 0 1-.63-1.49z"/></g></svg>