<svg xmlns="http://www.w3.org/2000/svg" width="200" height="200"><defs><clipPath id="a"><path fill="#546f7a" d="M14.5 0H.7a.7.7 0 0 0-.7.7v15a.7.7 0 0 0 .7.8h13.8a.7.7 0 0 0 .7-.7V.7a.7.7 0 0 0-.7-.7z"/></clipPath><clipPath id="b"><path fill="#546f7a" d="M4694 6166H4680a.7.7 0 0 0-.7.7v15a.7.7 0 0 0 .7.8h13.8a.7.7 0 0 0 .7-.7v-15.1a.7.7 0 0 0-.7-.7z"/></clipPath><clipPath id="c"><path fill="#546f7a" d="M4694 6189H4680a.7.7 0 0 0-.7.7v15a.7.7 0 0 0 .7.8h13.8a.7.7 0 0 0 .7-.7v-15.1a.7.7 0 0 0-.7-.7z"/></clipPath><clipPath id="d"><path fill="#546f7a" d="M4694 6212H4680a.7.7 0 0 0-.7.7v15a.7.7 0 0 0 .7.8h13.8a.7.7 0 0 0 .7-.7v-15.1a.7.7 0 0 0-.7-.7z"/></clipPath></defs><g transform="translate(-6172 -6401)"><circle cx="100" cy="100" r="100" fill="#fff" transform="translate(6172 6401)"/><g style="mix-blend-mode:luminosity;isolation:isolate" transform="translate(1164 307)"><circle cx="100" cy="100" r="100" fill="#d9e2ee" opacity=".3" transform="translate(5008 6094)"/><circle cx="64" cy="64" r="64" fill="#d9e2ee" opacity=".5" transform="translate(5044 6130)"/><path fill="#dbdbdb" d="M5135.8 6256.1h-66a2 2 0 0 1-2-2v-18.4a2 2 0 0 1 2-2h43l15.6-15.6v-75.2a2 2 0 0 1 2-2h24.1a2 2 0 0 1 2 2v94.5a2 2 0 0 1 0 .3v16.5a2 2 0 0 1-2 2z"/><path fill="#ccc6c4" d="M5131.6 6252h-66a2 2 0 0 1-2-2v-18.5a2 2 0 0 1 2-2h43l15.6-15.6v-75.1a2 2 0 0 1 2-2h24.2a2 2 0 0 1 2 2v94.4a2 2 0 0 1-.1.4v16.4a2 2 0 0 1-2 2z"/><path fill="#fff" d="M5146.8 6132.3H5062a2 2 0 0 0-2 2v111.2a2 2 0 0 0 2 2h68a2 2 0 0 0 1.4-.6l16.8-16.7a2 2 0 0 0 .5-1.4v-94.5a2 2 0 0 0-2-2z"/><path fill="#c8c8c8" d="M5128.3 6152.7h-34.9a1 1 0 0 1 0-2h34.9a1 1 0 0 1 0 2zm0-4.7h-34.9a1 1 0 0 1 0-2h34.9a1 1 0 0 1 0 2zm-12.8 9.4h-22a1 1 0 0 1 0-2h22a1 1 0 0 1 0 2zm12.8 18.3h-34.9a1 1 0 0 1 0-2h34.9a1 1 0 0 1 0 2zm0-4.7h-34.9a1 1 0 0 1 0-2h34.9a1 1 0 0 1 0 2zm-17.8 9.4h-17a1 1 0 0 1 0-2h17a1 1 0 0 1 0 2zm17.8 18.3h-34.9a1 1 0 0 1 0-2h34.9a1 1 0 0 1 0 2zm0-4.7h-34.9a1 1 0 0 1 0-2h34.9a1 1 0 0 1 0 2zm-7.8 9.4h-27a1 1 0 0 1 0-2h27a1 1 0 0 1 0 2zm7.8 18.3h-34.9a1 1 0 0 1 0-2h34.9a1 1 0 0 1 0 2zm0-4.7h-34.9a1 1 0 0 1 0-2h34.9a1 1 0 0 1 0 2zm-17.8 9.4h-17a1 1 0 0 1 0-2h17a1 1 0 0 1 0 2z"/><path fill="#ebebeb" d="M5148.7 6226.8H5130a2 2 0 0 0-2 2v18.7h2a2 2 0 0 0 1.4-.6l16.8-16.7a2 2 0 0 0 .5-1.4v-2zm-62.6-83.8h-15a.7.7 0 0 0-.8.7v15a.7.7 0 0 0 .8.8h15a.7.7 0 0 0 .7-.7v-15.1a.7.7 0 0 0-.7-.7zm0 23h-15a.7.7 0 0 0-.8.7v15a.7.7 0 0 0 .8.8h15a.7.7 0 0 0 .7-.7v-15.1a.7.7 0 0 0-.7-.7zm0 23h-15a.7.7 0 0 0-.8.7v15a.7.7 0 0 0 .8.8h15a.7.7 0 0 0 .7-.7v-15.1a.7.7 0 0 0-.7-.7zm0 23h-15a.7.7 0 0 0-.8.7v15a.7.7 0 0 0 .8.8h15a.7.7 0 0 0 .7-.7v-15.1a.7.7 0 0 0-.7-.7z"/><g clip-path="url(#a)" transform="translate(5070.7 6143)"><path fill="#707487" d="M7.5 1.8A3.7 3.7 0 0 0 4 5.5V7a1.2 1.2 0 0 1 1-.3v-.2a.2.2 0 0 1 .2-.3 6.5 6.5 0 0 0 4-1 .2.2 0 0 1 .2 0l1 1.1v.4a1.1 1.1 0 0 1 .9.2V5.5a3.7 3.7 0 0 0-3.7-3.7z"/><path fill="#5b5d6e" d="M4.7 5.5A3.7 3.7 0 0 1 8 1.9a3.6 3.6 0 0 0-4.1 3.6V7a1.2 1.2 0 0 1 .8-.3z"/><path fill="#f0a479" d="M10.3 6.5v2.1a1 1 0 1 0 0-2z"/><path fill="#e59770" d="M11.1 6.7a1.1 1.1 0 0 0-.8-.2v2.1a1.1 1.1 0 0 0 .8-.2z"/><path fill="#f0a479" d="M4.8 8.5v-2a1.1 1.1 0 0 0-1.2 1 1 1 0 0 0 1.2 1.1z"/><path fill="#e59770" d="M4.8 8.4a1 1 0 0 1-.4-.8 1 1 0 0 1 .4-.8v-.3a1.1 1.1 0 0 0-1.2 1 1 1 0 0 0 1.2 1.1z"/><path fill="#f0a479" d="M7.6 11a2.8 2.8 0 0 1-1.5-.3v1.5L7.6 14 9 12.1v-1.5a2.7 2.7 0 0 1-1.5.5z"/><path fill="#e59770" d="M7 11a2.7 2.7 0 0 1-1-.3v1.5l1 1z"/><path fill="#e4eaf8" d="m13.1 13.6-4-1.6-1.5 2L6 12l-4 1.6a2.6 2.6 0 0 0-1.6 2.3v6.7a.5.5 0 0 0 .5.5h13.1a.5.5 0 0 0 .5-.5v-6.7a2.6 2.6 0 0 0-1.5-2.3z"/><path fill="#d8dce5" d="M1.4 22.6v-7.2a2.5 2.5 0 0 1 .9-2l-.3.2a2.6 2.6 0 0 0-1.5 2.3v6.7a.5.5 0 0 0 .5.5H2a.5.5 0 0 1-.5-.5z"/><path fill="#f0a479" d="M9.3 5A.2.2 0 0 0 9 5a6.5 6.5 0 0 1-4 1.1.2.2 0 0 0-.2.3v2.1a2.7 2.7 0 0 0 5.5 0V6.2c0-.2 0-.1-1-1.1z"/><path fill="#e59770" d="M5.7 8.5V6.1a5.7 5.7 0 0 1-.6 0 .2.2 0 0 0-.3.3v2.1A2.8 2.8 0 0 0 8 11.2a2.7 2.7 0 0 1-2.3-2.7z"/><path fill="#d8dce5" d="M3.4 23v-6.5a.3.3 0 1 0-.7 0V23zm9 0v-6.5a.3.3 0 1 0-.6 0V23zm-3-8.1 1.2-2.3L9 12l-1.5 2L9 15a.2.2 0 0 0 .3-.1zm-3.7 0-1.1-2.3 1.5-.6 1.5 2L6 15a.2.2 0 0 1-.4-.1z"/><path fill="#ff5050" d="m9.1 21.2-1-5.8h-1l-1 5.8a.3.3 0 0 0 0 .2L7.4 23a.2.2 0 0 0 .3 0l1.4-1.5a.3.3 0 0 0 0-.2z"/><g fill="#ed3a3a"><path d="m7.6 14-1.1.7.5.7h1.2l.5-.7zM7 21.4a.3.3 0 0 1-.1-.2l1-5.8H7l-1 5.8a.3.3 0 0 0 0 .2L7.5 23a.2.2 0 0 0 .3 0l.3-.3z"/></g><path fill="#db2a2a" d="m8 14.2-.4-.3-1.1.8.5.8H8l-.5-.7a.1.1 0 0 1 0-.2z"/></g><g clip-path="url(#b)" transform="translate(391.3)"><path fill="#ef4c35" d="m4687.6 6181.2.3-1-1-.7-1 .8.3.9z"/><path fill="#dd3e2b" d="m4686.2 6181.2-.5 3h2.4l-.5-3z"/><path fill="#d2d2d7" d="m4686 6184.2.5-3-.4-1.1-1.5-1.4.3 2.1.9 3.4z"/><path fill="#e4e4ea" d="m4688 6184.2 1-3.4.3-2.2-1.6 1.5-.4 1.1.5 3z"/><path fill="#f5f5f7" d="M4688 6180.7a.4.4 0 0 0 .6 0l1-2.1-1.3-.8-.3.5-1.1 1.2-1-1.1-.3-.7-1.4.9 1 2a.4.4 0 0 0 .5 0l1.2-.7 1 .8a.4.4 0 0 1 .1 0z"/><path fill="#694b4b" d="M4687 6167.7h-.3a3.7 3.7 0 0 0-3.6 3.7v1.7s.8 0 .9-.5a.5.5 0 0 0 0-.1 5.3 5.3 0 0 0 4-1.6 2.5 2.5 0 0 0 1.7 1.6.5.5 0 0 0 0 .1c.2.4 1 .5 1 .5v-1.7a3.7 3.7 0 0 0-3.7-3.7zm2.8 4.7zm0 0zm-.1 0zm0 0z"/><path fill="#563b3b" d="M4683.7 6172.3v-1a3.7 3.7 0 0 1 3.5-3.6h-.5a3.7 3.7 0 0 0-3.6 3.7v1.7a2.1 2.1 0 0 0 .6-.2v-.6z"/><path fill="#fbcb99" d="M4690.3 6172.6a.5.5 0 0 0-.6.4v1.3a.5.5 0 0 0 .6.5 1.1 1.1 0 0 0 .2-.1 2.3 2.3 0 0 1 .3-.3 1.2 1.2 0 0 0-.5-1.8z"/><path fill="#edba89" d="M4684 6172.6a.5.5 0 0 0-.5 0 1.2 1.2 0 0 0 0 2.2.5.5 0 0 0 .6-.5v-1.3a.5.5 0 0 0-.2-.4z"/><path fill="#fbcb99" d="M4688.2 6176.6a.5.5 0 0 0-.4 0 2.5 2.5 0 0 1-.6 0h-.6a2.5 2.5 0 0 1-.5 0 .5.5 0 0 0-.6.4v1.3a.5.5 0 0 0 .1.4l1 .9a.5.5 0 0 0 .3.1.5.5 0 0 0 .3-.1l1-1a.5.5 0 0 0 .1-.3v-1.3a.5.5 0 0 0-.1-.4z"/><path fill="#edba89" d="m4687 6179.4-1-.9a.5.5 0 0 1 0-.3v-1.4a.5.5 0 0 1 0-.3.5.5 0 0 0-.5.5v1.3a.5.5 0 0 0 .1.4l1 .9a.5.5 0 0 0 .3.1.5.5 0 0 0 .3-.1.5.5 0 0 1-.2-.2z"/><path fill="#fbcb99" d="M4689.6 6172.2a1.6 1.6 0 0 1-.2 0 2.4 2.4 0 0 1-1.2-1.2.2.2 0 0 0-.2 0 6.6 6.6 0 0 1-2.2 1 6.8 6.8 0 0 1-.7.2 5.6 5.6 0 0 1-.8 0 .5.5 0 0 0-.4.5v1.9a2.7 2.7 0 0 0 2.7 2.7h.6a2.7 2.7 0 0 0 2.7-2.7v-2a.5.5 0 0 0-.3-.4z"/><path fill="#edba89" d="M4684.4 6174.6v-1.9a.5.5 0 0 1 .5-.5 5.6 5.6 0 0 0 .7 0 6.8 6.8 0 0 0 .7-.2 6.7 6.7 0 0 0 2-.9.3.3 0 0 1-.1-.1.2.2 0 0 0-.2 0 6.6 6.6 0 0 1-2.2 1 6.8 6.8 0 0 1-.8.2 5.6 5.6 0 0 1-.7 0 .5.5 0 0 0-.4.5v1.9a2.7 2.7 0 0 0 2.7 2.7h.6a2.7 2.7 0 0 1-2.8-2.7z"/><path fill="#324a5e" d="M4681.6 6184.2h4.5l-1.6-5.8-1.7.7a3 3 0 0 0-1.8 2.8v1.7a.6.6 0 0 0 .6.6zm11.1-.6v-1.7a3 3 0 0 0-1.8-2.8l-1.6-.6-1.6 5.7h4.4a.6.6 0 0 0 .6-.6z"/><path fill="#283d4c" d="m4684.5 6178.4-1.7.7a3 3 0 0 0-1.8 2.8v1.7a.6.6 0 0 0 .6.6v-2.2a3 3 0 0 1 1.9-2.9l1-.4zm6.4 5.8v-2.3a.3.3 0 1 0-.6 0v2.3zm-7.4 0v-2.3a.3.3 0 1 0-.6 0v2.3z"/><path fill="#edba89" d="M4687.2 6174.8a.2.2 0 0 1 0 .4h-.5a.2.2 0 0 1-.2-.2v-.9a.2.2 0 0 1 .4 0v.7z"/></g><g clip-path="url(#c)" transform="translate(391.3)"><path fill="#694b4b" d="M4690.3 6200.1a5.5 5.5 0 0 0 .9-3c0-2.7-1.9-4.9-4.2-4.9s-4.1 2.2-4.1 5a5.5 5.5 0 0 0 .8 3 .5.5 0 0 0 .6.2 6.2 6.2 0 0 1 1-.3h.5l-.4-.5a2 2 0 0 1-.6-1.2v-.3h-.3a.8.8 0 0 1 0-1.5h.2v-.2a5.9 5.9 0 0 0 2.3-1.3 4.2 4.2 0 0 0 2.3 1.3v.2h.3a.8.8 0 0 1 0 1.5h-.3v.3a2 2 0 0 1-.7 1.2l-.4.4.6.1a6.2 6.2 0 0 1 1 .3.5.5 0 0 0 .5-.3z"/><path fill="#fbcb99" d="M4688.1 6201v-1h-.3a2 2 0 0 1-.6.2h-.4a2 2 0 0 1-.5-.1l-.4-.1v1l-1.1.3.2 1h.1a3.8 3.8 0 0 0 1.1.4 3.7 3.7 0 0 0 .8.1 3.7 3.7 0 0 0 2-.5l.3-1z"/><path fill="#edba89" d="M4686.6 6202.7a3.8 3.8 0 0 1-1.1-.4l-.3-.9 1-.2v-1l-.3-.2v1l-1.1.3.2 1h.1a3.8 3.8 0 0 0 1.1.4 3.7 3.7 0 0 0 .8.1h.2a3.7 3.7 0 0 1-.6 0z"/><path fill="#f5f5f7" d="M4688.5 6202.4a3.5 3.5 0 0 1-2.3.2 3.8 3.8 0 0 1-.7-.2l-.4-.2 1.1 4h1.6l1.1-4z"/><path fill="#d2d2d7" d="m4685.1 6202.2 1.1 4h.4l-1-3.8z"/><path fill="#324a5e" d="M4690.8 6202a4.2 4.2 0 0 0-.4-.2 10.8 10.8 0 0 0-1.4-.5l-1.3 4.8h3.8a.5.5 0 0 0 .5-.5v-1.4a2.6 2.6 0 0 0-1.2-2.2zm-5.8-.7a10.7 10.7 0 0 0-1.3.4h-.1a4.2 4.2 0 0 0-.4.3 2.6 2.6 0 0 0-1.2 2.2v1.4a.5.5 0 0 0 .5.5h3.8z"/><path fill="#283d4c" d="M4682.5 6205.6v-1.4a2.6 2.6 0 0 1 1.2-2.2 4.2 4.2 0 0 1 .4-.2l1-.4-.1-.1a10.8 10.8 0 0 0-1.3.4h-.1a4.2 4.2 0 0 0-.4.3 2.6 2.6 0 0 0-1.2 2.2v1.4a.5.5 0 0 0 .5.5zm7.9.5v-2a.2.2 0 0 0-.5 0v2zm-6.4 0v-2a.2.2 0 0 0-.4 0v2z"/><path fill="#fbcb99" d="M4689.7 6196.4a.4.4 0 0 0-.5.4v1.1a.4.4 0 0 0 .5.4 1 1 0 0 0 .2 0 2 2 0 0 1 .3-.3 1 1 0 0 0-.5-1.6z"/><path fill="#edba89" d="M4684.7 6196.5a.4.4 0 0 0-.4 0 1 1 0 0 0 0 1.8.4.4 0 0 0 .5-.4v-1a.4.4 0 0 0-.1-.4z"/><path fill="#fbcb99" d="M4689.4 6196.4a.2.2 0 0 0 0-.2h-.2a4 4 0 0 1-2-1 .4.4 0 0 0-.5 0 5.7 5.7 0 0 1-1.9 1 .2.2 0 0 0-.2.2v1.7a2.2 2.2 0 0 0 2.2 2.2h.4a2.2 2.2 0 0 0 2.2-2.2v-1.7z"/><g fill="#edba89"><path d="M4687.2 6195a.4.4 0 0 0-.5.1 5.7 5.7 0 0 1-1.9 1v.1a.2.2 0 0 0-.2.2v1.7a2.2 2.2 0 0 0 2.2 2.2h.3a2.2 2.2 0 0 1-2.1-2.2v-1.6a.3.3 0 0 1 .2-.3 5.6 5.6 0 0 0 2-1.1z"/><path d="M4687.2 6198a.1.1 0 1 1 0 .4h-.4a.1.1 0 0 1-.1-.2v-.7a.1.1 0 0 1 .3 0v.6z"/></g><path fill="#563b3b" d="M4683.7 6200.1v.1a.5.5 0 0 0 .6.2 5.5 5.5 0 0 1-1-3.3c0-2.6 1.8-4.8 4-4.9h-.3c-2.3 0-4.1 2.2-4.1 5a5.5 5.5 0 0 0 .8 3z"/></g><g clip-path="url(#d)" transform="translate(391.3)"><g transform="translate(4573.6 6213.7)"><path fill="#aae1ff" d="m118.4 14.1-1.8-.8h-6.2l-1.8.8a2 2 0 0 0-1.2 2l.1 4.4a.7.7 0 0 0 .7.7h10.6a.7.7 0 0 0 .7-.7l.2-4.4a2 2 0 0 0-1.3-2z"/><path fill="#e6af78" d="M111.8 11h3.4v3.4h-3.4z"/><path fill="#d29b6e" d="M111.8 12a4 4 0 0 0 3.4 0v-1h-3.4z"/><circle cx="2.1" cy="2.1" r="2.1" fill="#6e4b53" transform="translate(111.5)"/><ellipse cx="4.1" cy="3.9" fill="#5c414b" rx="4.1" ry="3.9" transform="translate(109.4 1.7)"/><path fill="#503441" d="M112.1 6.2a4.3 4.3 0 0 1-1.5-3.3 3.8 3.8 0 0 0-1.2 2.7 3.8 3.8 0 0 0 .6 2z"/><path fill="#f0c087" d="M117.4 6.8a1.8 1.8 0 0 0-.2 0 .7.7 0 0 1-.5-.2l-.3-.3a.7.7 0 0 0-.4-.2 11.2 11.2 0 0 1-4-.9.3.3 0 0 0-.4.1 7 7 0 0 1-1.2 1.4.7.7 0 0 1-.4.1h-.3a.7.7 0 0 0-.6.8v.2a.7.7 0 0 0 .5.7.7.7 0 0 0 .2 0 .3.3 0 0 1 .3.3 3.4 3.4 0 0 0 6.8 0 .3.3 0 0 1 .3-.3.7.7 0 0 0 .2 0 .7.7 0 0 0 .5-.7v-.3a.7.7 0 0 0-.5-.7z"/><path fill="#e6af78" d="M111.5 8.2V5.5a7.2 7.2 0 0 1-1 1.2.7.7 0 0 1-.5.1h-.3a.7.7 0 0 0-.6.8v.2a.7.7 0 0 0 .5.7.7.7 0 0 0 .2 0 .3.3 0 0 1 .3.3 3.4 3.4 0 0 0 4 2.8 3.4 3.4 0 0 1-2.6-3.4z"/><g fill="#beebff"><path d="m109.2 16-1.3-1.4a2 2 0 0 0-.5 1.5l.1 4.4a.7.7 0 0 0 .7.7h1.5v-3.6a2.4 2.4 0 0 0-.5-1.5zm8.6 0 1.3-1.4a2 2 0 0 1 .6 1.5l-.2 4.4a.7.7 0 0 1-.7.7h-1.5v-3.6a2.4 2.4 0 0 1 .5-1.5zm-2-3.5a.3.3 0 0 0-.5 0l-1.6 1.7a.2.2 0 0 1-.3 0l-1.7-1.7a.3.3 0 0 0-.5 0l-.8.8 1.3 2a.3.3 0 0 0 .5.2l.8-.7a.1.1 0 0 1 .2.1v6.3h.7v-6.3a.1.1 0 0 1 .2 0l.7.6a.3.3 0 0 0 .5-.1l1.3-2z"/><path d="M110.8 18.5h1.3a.3.3 0 0 0 .4-.4v-.3a.3.3 0 0 0-.4-.4h-1.3a.3.3 0 0 0-.4.4v.3a.3.3 0 0 0 .4.4z"/></g></g></g></g><path fill="#26bf64" d="M6341.6 6460.8a19.8 19.8 0 1 1-19.8-19.8 19.8 19.8 0 0 1 19.8 19.8zm0 0"/><path fill="#49d685" d="M6341.5 6460.7a19.8 19.8 0 0 1-18 19.7 19.8 19.8 0 0 1 0-39.4 19.8 19.8 0 0 1 18 19.7zm0 0"/><path fill="#fff" d="M6331.3 6459.7h-8.4v-8.5a1.2 1.2 0 1 0-2.4 0v8.5h-8.4a1.2 1.2 0 0 0 0 2.4h8.4v8.4a1.2 1.2 0 1 0 2.4 0v-8.4h8.4a1.2 1.2 0 0 0 0-2.4zm0 0"/></g></svg>